<mxfile host="app.diagrams.net" agent="Mozilla/5.0 (X11; Linux x86_64) AppleWebKit/537.36 (KHTML, like Gecko) Chrome/129.0.0.0 Safari/537.36" version="24.7.16">
  <diagram name="Page-1" id="K4JgPBNIt-lu5pR0Hjhh">
    <mxGraphModel dx="819" dy="413" grid="1" gridSize="10" guides="1" tooltips="1" connect="1" arrows="1" fold="1" page="1" pageScale="1" pageWidth="850" pageHeight="1100" math="0" shadow="0">
      <root>
        <mxCell id="0" />
        <mxCell id="1" parent="0" />
        <mxCell id="Tr6TNFyOmBAZaWiCRIME-1" value="GOSAI" style="swimlane;whiteSpace=wrap;html=1;" vertex="1" parent="1">
          <mxGeometry x="400" y="180" width="260" height="220" as="geometry" />
        </mxCell>
        <mxCell id="Tr6TNFyOmBAZaWiCRIME-7" value="Drivers" style="rounded=1;whiteSpace=wrap;html=1;fillColor=#f5f5f5;fontColor=#333333;strokeColor=#666666;" vertex="1" parent="Tr6TNFyOmBAZaWiCRIME-1">
          <mxGeometry x="20" y="40" width="80" height="60" as="geometry" />
        </mxCell>
        <mxCell id="Tr6TNFyOmBAZaWiCRIME-8" value="Redis" style="rounded=1;whiteSpace=wrap;html=1;fillColor=#f8cecc;strokeColor=#b85450;" vertex="1" parent="Tr6TNFyOmBAZaWiCRIME-1">
          <mxGeometry x="120" y="40" width="120" height="160" as="geometry" />
        </mxCell>
        <mxCell id="Tr6TNFyOmBAZaWiCRIME-10" value="DeepFake App" style="rounded=1;whiteSpace=wrap;html=1;fillColor=#fff2cc;strokeColor=#d6b656;" vertex="1" parent="Tr6TNFyOmBAZaWiCRIME-1">
          <mxGeometry x="15" y="110" width="90" height="40" as="geometry" />
        </mxCell>
        <mxCell id="Tr6TNFyOmBAZaWiCRIME-11" value="SDXLturbo App" style="rounded=1;whiteSpace=wrap;html=1;fillColor=#ffe6cc;strokeColor=#d79b00;" vertex="1" parent="Tr6TNFyOmBAZaWiCRIME-1">
          <mxGeometry x="15" y="160" width="90" height="40" as="geometry" />
        </mxCell>
        <mxCell id="Tr6TNFyOmBAZaWiCRIME-2" value="Totem Platform" style="swimlane;whiteSpace=wrap;html=1;" vertex="1" parent="1">
          <mxGeometry x="160" y="180" width="200" height="110" as="geometry" />
        </mxCell>
        <mxCell id="Tr6TNFyOmBAZaWiCRIME-4" value="Camera" style="rounded=1;whiteSpace=wrap;html=1;fillColor=#d5e8d4;strokeColor=#82b366;" vertex="1" parent="Tr6TNFyOmBAZaWiCRIME-2">
          <mxGeometry x="30" y="30" width="140" height="30" as="geometry" />
        </mxCell>
        <mxCell id="Tr6TNFyOmBAZaWiCRIME-5" value="Display" style="rounded=1;whiteSpace=wrap;html=1;fillColor=#dae8fc;strokeColor=#6c8ebf;" vertex="1" parent="Tr6TNFyOmBAZaWiCRIME-2">
          <mxGeometry x="30" y="70" width="140" height="30" as="geometry" />
        </mxCell>
        <mxCell id="Tr6TNFyOmBAZaWiCRIME-12" value="User" style="shape=umlActor;verticalLabelPosition=bottom;verticalAlign=top;html=1;outlineConnect=0;" vertex="1" parent="1">
          <mxGeometry x="60" y="185" width="50" height="105" as="geometry" />
        </mxCell>
        <mxCell id="Tr6TNFyOmBAZaWiCRIME-13" value="Compute Endpoint" style="swimlane;whiteSpace=wrap;html=1;" vertex="1" parent="1">
          <mxGeometry x="160" y="330" width="200" height="70" as="geometry" />
        </mxCell>
        <mxCell id="Tr6TNFyOmBAZaWiCRIME-6" value="GPU" style="rounded=1;whiteSpace=wrap;html=1;fillColor=#ffe6cc;strokeColor=#d79b00;" vertex="1" parent="Tr6TNFyOmBAZaWiCRIME-13">
          <mxGeometry x="30" y="30" width="140" height="30" as="geometry" />
        </mxCell>
        <mxCell id="Tr6TNFyOmBAZaWiCRIME-16" value="" style="curved=1;endArrow=classic;html=1;rounded=0;exitX=1;exitY=0.5;exitDx=0;exitDy=0;entryX=0;entryY=0.5;entryDx=0;entryDy=0;" edge="1" parent="1" source="Tr6TNFyOmBAZaWiCRIME-4" target="Tr6TNFyOmBAZaWiCRIME-7">
          <mxGeometry width="50" height="50" relative="1" as="geometry">
            <mxPoint x="250" y="380" as="sourcePoint" />
            <mxPoint x="300" y="330" as="targetPoint" />
            <Array as="points">
              <mxPoint x="380" y="250" />
            </Array>
          </mxGeometry>
        </mxCell>
        <mxCell id="Tr6TNFyOmBAZaWiCRIME-17" value="" style="curved=1;endArrow=classic;html=1;rounded=0;exitX=1;exitY=0.75;exitDx=0;exitDy=0;entryX=0;entryY=0.75;entryDx=0;entryDy=0;" edge="1" parent="1" source="Tr6TNFyOmBAZaWiCRIME-6" target="Tr6TNFyOmBAZaWiCRIME-11">
          <mxGeometry width="50" height="50" relative="1" as="geometry">
            <mxPoint x="330" y="375" as="sourcePoint" />
            <mxPoint x="420" y="400" as="targetPoint" />
            <Array as="points">
              <mxPoint x="380" y="400" />
            </Array>
          </mxGeometry>
        </mxCell>
        <mxCell id="Tr6TNFyOmBAZaWiCRIME-18" value="" style="curved=1;endArrow=classic;html=1;rounded=0;exitX=0;exitY=0.25;exitDx=0;exitDy=0;entryX=1;entryY=0.25;entryDx=0;entryDy=0;" edge="1" parent="1" source="Tr6TNFyOmBAZaWiCRIME-11" target="Tr6TNFyOmBAZaWiCRIME-6">
          <mxGeometry width="50" height="50" relative="1" as="geometry">
            <mxPoint x="330" y="363" as="sourcePoint" />
            <mxPoint x="380" y="330" as="targetPoint" />
            <Array as="points">
              <mxPoint x="380" y="350" />
            </Array>
          </mxGeometry>
        </mxCell>
        <mxCell id="Tr6TNFyOmBAZaWiCRIME-19" value="" style="curved=1;endArrow=classic;html=1;rounded=0;exitX=-0.016;exitY=0.382;exitDx=0;exitDy=0;entryX=1;entryY=0.5;entryDx=0;entryDy=0;exitPerimeter=0;" edge="1" parent="1" source="Tr6TNFyOmBAZaWiCRIME-10" target="Tr6TNFyOmBAZaWiCRIME-5">
          <mxGeometry width="50" height="50" relative="1" as="geometry">
            <mxPoint x="335" y="290" as="sourcePoint" />
            <mxPoint x="425" y="315" as="targetPoint" />
            <Array as="points">
              <mxPoint x="385" y="315" />
            </Array>
          </mxGeometry>
        </mxCell>
        <mxCell id="Tr6TNFyOmBAZaWiCRIME-20" value="" style="curved=1;endArrow=classic;html=1;rounded=0;exitX=-0.016;exitY=0.382;exitDx=0;exitDy=0;entryX=1;entryY=0.75;entryDx=0;entryDy=0;exitPerimeter=0;dashed=1;" edge="1" parent="1" target="Tr6TNFyOmBAZaWiCRIME-5">
          <mxGeometry width="50" height="50" relative="1" as="geometry">
            <mxPoint x="424" y="340" as="sourcePoint" />
            <mxPoint x="340" y="300" as="targetPoint" />
            <Array as="points">
              <mxPoint x="395" y="350" />
            </Array>
          </mxGeometry>
        </mxCell>
        <mxCell id="Tr6TNFyOmBAZaWiCRIME-21" value="" style="curved=1;endArrow=classic;html=1;rounded=0;entryX=0;entryY=0.5;entryDx=0;entryDy=0;startArrow=classic;startFill=1;" edge="1" parent="1" target="Tr6TNFyOmBAZaWiCRIME-2">
          <mxGeometry width="50" height="50" relative="1" as="geometry">
            <mxPoint x="100" y="250" as="sourcePoint" />
            <mxPoint x="150" y="200" as="targetPoint" />
            <Array as="points">
              <mxPoint x="130" y="250" />
              <mxPoint x="120" y="230" />
            </Array>
          </mxGeometry>
        </mxCell>
      </root>
    </mxGraphModel>
  </diagram>
</mxfile>
